<svg xmlns="http://www.w3.org/2000/svg" viewBox="0 0 800 320" role="img" aria-label="教室の黒板に、宿題・しめきり・出す場所・持って帰るものの4つが書いてあり、提出する青い箱が1つだけ置いてある。連絡帳に4つを書きこんだ子どもの上で、「でも、しめきり聞いてない…」という吹き出しが消えかけている。ミルルが「すきまをふさぐと、でもが消えるよ」と話している">
<rect width="800" height="320" fill="var(--sky, #dbe7fb)"/>
<path d="M0 288 Q200 276 400 290 T800 282 V320 H0Z" fill="var(--leaf-soft, #dcf1e8)"/>
<g stroke-linecap="round" stroke-linejoin="round">
<rect x="34" y="30" width="300" height="176" rx="10" fill="#8a6446"/><rect x="46" y="42" width="276" height="152" rx="6" fill="#2f5d4a"/><text x="184" y="72" text-anchor="middle" font-size="16" fill="#fff" font-family="Zen Maru Gothic, sans-serif" font-weight="700">きょうの しゅくだい</text><line x1="70" y1="84" x2="298" y2="84" stroke="#fff" stroke-width="1.5" opacity="0.6"/><text x="66" y="108" text-anchor="start" font-size="13" fill="#fff" font-family="Zen Maru Gothic, sans-serif" font-weight="700">宿題　計算ドリル 12ページ</text><text x="66" y="132" text-anchor="start" font-size="13" fill="#fff" font-family="Zen Maru Gothic, sans-serif" font-weight="700">しめきり　金曜 朝8時30分</text><text x="66" y="156" text-anchor="start" font-size="13" fill="#fff" font-family="Zen Maru Gothic, sans-serif" font-weight="700">出す場所　後ろの青い箱</text><text x="66" y="180" text-anchor="start" font-size="13" fill="#fff" font-family="Zen Maru Gothic, sans-serif" font-weight="700">持って帰る　ドリル・筆箱</text>
<rect x="150" y="236" width="110" height="52" rx="6" fill="#7fb6e8" stroke="var(--ink, #1d2540)" stroke-width="2.5"/><rect x="174" y="236" width="62" height="8" rx="3" fill="var(--ink, #1d2540)"/><text x="205" y="272" text-anchor="middle" font-size="14" fill="var(--ink, #1d2540)" font-family="Zen Maru Gothic, sans-serif" font-weight="700">青い箱</text>
<circle cx="450" cy="178" r="20" fill="#f3c9a0" stroke="var(--ink, #1d2540)" stroke-width="2.5"/><path d="M430 174 q20 -30 40 0 Z" fill="#3d3a4a"/><circle cx="443" cy="182" r="2.2" fill="#1d2540"/><circle cx="457" cy="182" r="2.2" fill="#1d2540"/><path d="M444 190 q6 5 12 0" fill="none" stroke="#1d2540" stroke-width="2"/><path d="M428 200 h44 l6 60 h-56 Z" fill="var(--warm, #c0583a)" stroke="var(--ink, #1d2540)" stroke-width="2.5"/><path d="M436 262 v18 M464 262 v18" stroke="var(--ink, #1d2540)" stroke-width="4"/>
<g transform="rotate(-5 450 236)"><rect x="370" y="206" width="160" height="60" rx="6" fill="var(--surface, #fff)" stroke="var(--ink, #1d2540)" stroke-width="2.5"/><line x1="450" y1="206" x2="450" y2="266" stroke="var(--ink, #1d2540)" stroke-width="2"/><text x="380" y="232" text-anchor="start" font-size="12" fill="var(--leaf, #2f8f6b)" font-family="Zen Maru Gothic, sans-serif" font-weight="700">✓ 宿題</text><text x="380" y="254" text-anchor="start" font-size="12" fill="var(--leaf, #2f8f6b)" font-family="Zen Maru Gothic, sans-serif" font-weight="700">✓ しめきり</text><text x="460" y="232" text-anchor="start" font-size="12" fill="var(--leaf, #2f8f6b)" font-family="Zen Maru Gothic, sans-serif" font-weight="700">✓ 出す場所</text><text x="460" y="254" text-anchor="start" font-size="12" fill="var(--leaf, #2f8f6b)" font-family="Zen Maru Gothic, sans-serif" font-weight="700">✓ 持ち物</text></g><text x="450" y="306" text-anchor="middle" font-size="13" fill="var(--ink-soft, #545c78)" font-family="Zen Maru Gothic, sans-serif" font-weight="700">れんらく帳に4つを書いた</text>
<rect x="372" y="62" width="156" height="58" rx="14" fill="none" stroke="var(--ink-soft, #545c78)" stroke-width="2" stroke-dasharray="5 6"/><path d="M440 120 l4 18 l12 -18" fill="none" stroke="var(--ink-soft, #545c78)" stroke-width="2" stroke-dasharray="5 6"/><text x="450" y="88" text-anchor="middle" font-size="14" fill="var(--ink-soft, #545c78)" font-family="Zen Maru Gothic, sans-serif" font-weight="700">でも、しめきり</text><text x="450" y="108" text-anchor="middle" font-size="14" fill="var(--ink-soft, #545c78)" font-family="Zen Maru Gothic, sans-serif" font-weight="700">聞いてない…</text><path d="M384 74 L516 112" stroke="var(--warm, #c0583a)" stroke-width="3"/>
</g>
<rect x="588" y="30" width="198" height="74" rx="16" fill="var(--surface, #fff)" stroke="var(--ink, #1d2540)" stroke-width="2.5"/><polygon points="766,102 780,120 748,102" fill="var(--surface, #fff)" stroke="var(--ink, #1d2540)" stroke-width="2.5" stroke-linejoin="round"/><rect x="592" y="98" width="190" height="5" fill="var(--surface, #fff)"/><text x="687.0" y="62.0" text-anchor="middle" font-size="17" fill="var(--ink, #1d2540)" font-family="Zen Maru Gothic, sans-serif" font-weight="700">すきまをふさぐと</text><text x="687.0" y="84.0" text-anchor="middle" font-size="17" fill="var(--ink, #1d2540)" font-family="Zen Maru Gothic, sans-serif" font-weight="700">「でも」が消えるよ</text>
<g transform="translate(636 140) scale(1.25)"><g stroke-linecap="round" stroke-linejoin="round">
    <path d="M30 34 L24 12 L44 26 Z" fill="#8a6446"/>
    <path d="M90 34 L96 12 L76 26 Z" fill="#8a6446"/>
    <ellipse cx="60" cy="68" rx="40" ry="44" fill="#9b7653"/>
    <ellipse cx="60" cy="82" rx="25" ry="26" fill="#f3e3c8"/>
    <path d="M48 80 q4 4 8 0 M60 88 q4 4 8 0 M50 96 q4 4 8 0" fill="none" stroke="#c9ad85" stroke-width="2"/>
    <circle cx="43" cy="52" r="15" fill="#fff"/>
    <circle cx="77" cy="52" r="15" fill="#fff"/>
    <circle cx="44" cy="53" r="6.5" fill="#1d2540"/>
    <circle cx="76" cy="53" r="6.5" fill="#1d2540"/>
    <circle cx="46" cy="50.5" r="2.2" fill="#fff"/>
    <circle cx="78" cy="50.5" r="2.2" fill="#fff"/>
    <circle cx="43" cy="52" r="17" fill="none" stroke="#1d2540" stroke-width="4"/>
    <circle cx="77" cy="52" r="17" fill="none" stroke="#1d2540" stroke-width="4"/>
    <path d="M56 50 q4 -4 8 0" fill="none" stroke="#1d2540" stroke-width="4"/>
    <path d="M54 64 L60 74 L66 64 Z" fill="#f2b01e"/>
    <ellipse cx="28" cy="70" rx="5" ry="3.5" fill="#f4845f" opacity=".55"/>
    <ellipse cx="92" cy="70" rx="5" ry="3.5" fill="#f4845f" opacity=".55"/>
    <path d="M22 72 q-6 18 8 30" fill="none" stroke="#7a573b" stroke-width="5"/>
    <path d="M98 72 q6 18 -8 30" fill="none" stroke="#7a573b" stroke-width="5"/>
    <path d="M50 110 v4 M56 110 v4 M64 110 v4 M70 110 v4" stroke="#f2b01e" stroke-width="3"/>
  </g>
</g>
</svg>