<svg xmlns="http://www.w3.org/2000/svg" viewBox="0 0 800 320" role="img" aria-label="中学校の体育館。顧問の先生が大会メンバーを発表している。先生のすぐそばには仲よしの部員3人がいて、メンバーにも3人が入った。はなれたところにいる部員たちは「やっぱり仲よしだから…」とひそひそ話している。ミルルが「仲よしでもいい。でも、みんなに同じ距離で」と話している">
<rect width="800" height="320" fill="var(--sky, #dbe7fb)"/>
<rect x="0" y="262" width="800" height="58" fill="#e3c393"/>
<path d="M0 262 H800" stroke="#c9a46e" stroke-width="3"/>
<g stroke-linecap="round" stroke-linejoin="round">
<path d="M50 300 V92" stroke="var(--ink-soft, #545c78)" stroke-width="5"/><rect x="40" y="56" width="62" height="44" rx="4" fill="var(--surface, #fff)" stroke="var(--ink, #1d2540)" stroke-width="2.5"/><rect x="58" y="72" width="26" height="18" fill="none" stroke="var(--warm, #c0583a)" stroke-width="2"/><path d="M64 100 h34" stroke="var(--warm, #c0583a)" stroke-width="3"/><path d="M66 102 l5 16 M74 102 l2 16 M82 102 l-1 16 M92 102 l-5 16" stroke="var(--ink-soft, #545c78)" stroke-width="1.5"/>
<rect x="132" y="34" width="190" height="112" rx="10" fill="var(--surface, #fff)" stroke="var(--ink, #1d2540)" stroke-width="2.5"/><text x="227" y="62" text-anchor="middle" font-size="15" fill="var(--ink, #1d2540)" font-family="Zen Maru Gothic, sans-serif" font-weight="700">🏀 大会メンバー</text><circle cx="160" cy="98" r="12" fill="var(--warm, #c0583a)" stroke="var(--ink, #1d2540)" stroke-width="2"/><circle cx="194" cy="98" r="12" fill="var(--warm, #c0583a)" stroke="var(--ink, #1d2540)" stroke-width="2"/><circle cx="228" cy="98" r="12" fill="var(--warm, #c0583a)" stroke="var(--ink, #1d2540)" stroke-width="2"/><circle cx="262" cy="98" r="12" fill="var(--sky-ink, #6f86b8)" stroke="var(--ink, #1d2540)" stroke-width="2"/><circle cx="296" cy="98" r="12" fill="var(--sky-ink, #6f86b8)" stroke="var(--ink, #1d2540)" stroke-width="2"/><text x="227" y="134" text-anchor="middle" font-size="12" fill="var(--ink-soft, #545c78)" font-family="Zen Maru Gothic, sans-serif" font-weight="700">仲よしの3人が入った</text>
<circle cx="214" cy="180" r="14" fill="#f3c9a0" stroke="var(--ink, #1d2540)" stroke-width="2.5"/><path d="M200 174 q14 -16 28 0" fill="#5b4636"/><rect x="200" y="196" width="28" height="40" rx="7" fill="var(--leaf, #2f8f6b)" stroke="var(--ink, #1d2540)" stroke-width="2.5"/><path d="M207 236 v24 M221 236 v24" stroke="var(--ink, #1d2540)" stroke-width="3.5"/><rect x="228" y="204" width="20" height="26" rx="3" fill="var(--surface, #fff)" stroke="var(--ink, #1d2540)" stroke-width="2"/><path d="M232 212 h12 M232 219 h12" stroke="var(--ink-soft, #545c78)" stroke-width="1.5"/>
<circle cx="262" cy="220" r="8" fill="#f3c9a0" stroke="var(--ink, #1d2540)" stroke-width="2"/><rect x="255" y="228" width="14" height="16" rx="4" fill="var(--warm, #c0583a)" stroke="var(--ink, #1d2540)" stroke-width="2"/><path d="M258 244 v8 M266 244 v8" stroke="var(--ink, #1d2540)" stroke-width="2.5"/><circle cx="290" cy="228" r="8" fill="#f3c9a0" stroke="var(--ink, #1d2540)" stroke-width="2"/><rect x="283" y="236" width="14" height="16" rx="4" fill="var(--warm, #c0583a)" stroke="var(--ink, #1d2540)" stroke-width="2"/><path d="M286 252 v8 M294 252 v8" stroke="var(--ink, #1d2540)" stroke-width="2.5"/><circle cx="318" cy="220" r="8" fill="#f3c9a0" stroke="var(--ink, #1d2540)" stroke-width="2"/><rect x="311" y="228" width="14" height="16" rx="4" fill="var(--warm, #c0583a)" stroke="var(--ink, #1d2540)" stroke-width="2"/><path d="M314 244 v8 M322 244 v8" stroke="var(--ink, #1d2540)" stroke-width="2.5"/><text x="290" y="196" text-anchor="middle" font-size="18" fill="var(--warm, #c0583a)" font-family="Zen Maru Gothic, sans-serif" font-weight="700">♪</text>
<path d="M340 270 H408" stroke="var(--ink-soft, #545c78)" stroke-width="2" stroke-dasharray="3 6"/><path d="M346 264 l-6 6 l6 6 M402 264 l6 6 l-6 6" fill="none" stroke="var(--ink-soft, #545c78)" stroke-width="2"/>
<circle cx="430" cy="234" r="8" fill="#f3c9a0" stroke="var(--ink, #1d2540)" stroke-width="2"/><rect x="423" y="242" width="14" height="16" rx="4" fill="var(--sky-ink, #6f86b8)" stroke="var(--ink, #1d2540)" stroke-width="2"/><path d="M426 258 v8 M434 258 v8" stroke="var(--ink, #1d2540)" stroke-width="2.5"/><circle cx="466" cy="228" r="8" fill="#f3c9a0" stroke="var(--ink, #1d2540)" stroke-width="2"/><rect x="459" y="236" width="14" height="16" rx="4" fill="var(--sky-ink, #6f86b8)" stroke="var(--ink, #1d2540)" stroke-width="2"/><path d="M462 252 v8 M470 252 v8" stroke="var(--ink, #1d2540)" stroke-width="2.5"/><circle cx="502" cy="236" r="8" fill="#f3c9a0" stroke="var(--ink, #1d2540)" stroke-width="2"/><rect x="495" y="244" width="14" height="16" rx="4" fill="var(--sky-ink, #6f86b8)" stroke="var(--ink, #1d2540)" stroke-width="2"/><path d="M498 260 v8 M506 260 v8" stroke="var(--ink, #1d2540)" stroke-width="2.5"/>
<rect x="392" y="150" width="150" height="50" rx="12" fill="var(--surface, #fff)" stroke="var(--ink-soft, #545c78)" stroke-width="2" stroke-dasharray="5 5"/><text x="467" y="171" text-anchor="middle" font-size="13" fill="var(--ink-soft, #545c78)" font-family="Zen Maru Gothic, sans-serif" font-weight="700">やっぱり</text><text x="467" y="191" text-anchor="middle" font-size="13" fill="var(--ink-soft, #545c78)" font-family="Zen Maru Gothic, sans-serif" font-weight="700">仲よしだから…</text>
</g>
<rect x="548" y="22" width="238" height="74" rx="16" fill="var(--surface, #fff)" stroke="var(--ink, #1d2540)" stroke-width="2.5"/><polygon points="766,94 780,112 748,94" fill="var(--surface, #fff)" stroke="var(--ink, #1d2540)" stroke-width="2.5" stroke-linejoin="round"/><rect x="552" y="90" width="230" height="5" fill="var(--surface, #fff)"/><text x="667.0" y="54.0" text-anchor="middle" font-size="17" fill="var(--ink, #1d2540)" font-family="Zen Maru Gothic, sans-serif" font-weight="700">仲よしでもいい。</text><text x="667.0" y="76.0" text-anchor="middle" font-size="17" fill="var(--ink, #1d2540)" font-family="Zen Maru Gothic, sans-serif" font-weight="700">でも、みんなに同じ距離で</text>
<g transform="translate(640 130) scale(1.3)"><g stroke-linecap="round" stroke-linejoin="round">
    <path d="M30 34 L24 12 L44 26 Z" fill="#8a6446"/>
    <path d="M90 34 L96 12 L76 26 Z" fill="#8a6446"/>
    <ellipse cx="60" cy="68" rx="40" ry="44" fill="#9b7653"/>
    <ellipse cx="60" cy="82" rx="25" ry="26" fill="#f3e3c8"/>
    <path d="M48 80 q4 4 8 0 M60 88 q4 4 8 0 M50 96 q4 4 8 0" fill="none" stroke="#c9ad85" stroke-width="2"/>
    <circle cx="43" cy="52" r="15" fill="#fff"/>
    <circle cx="77" cy="52" r="15" fill="#fff"/>
    <circle cx="44" cy="53" r="6.5" fill="#1d2540"/>
    <circle cx="76" cy="53" r="6.5" fill="#1d2540"/>
    <circle cx="46" cy="50.5" r="2.2" fill="#fff"/>
    <circle cx="78" cy="50.5" r="2.2" fill="#fff"/>
    <circle cx="43" cy="52" r="17" fill="none" stroke="#1d2540" stroke-width="4"/>
    <circle cx="77" cy="52" r="17" fill="none" stroke="#1d2540" stroke-width="4"/>
    <path d="M56 50 q4 -4 8 0" fill="none" stroke="#1d2540" stroke-width="4"/>
    <path d="M54 64 L60 74 L66 64 Z" fill="#f2b01e"/>
    <ellipse cx="28" cy="70" rx="5" ry="3.5" fill="#f4845f" opacity=".55"/>
    <ellipse cx="92" cy="70" rx="5" ry="3.5" fill="#f4845f" opacity=".55"/>
    <path d="M22 72 q-6 18 8 30" fill="none" stroke="#7a573b" stroke-width="5"/>
    <path d="M98 72 q6 18 -8 30" fill="none" stroke="#7a573b" stroke-width="5"/>
    <path d="M50 110 v4 M56 110 v4 M64 110 v4 M70 110 v4" stroke="#f2b01e" stroke-width="3"/>
  </g>
</g>
</svg>